<?xml version="1.0" standalone="no"?>
<!DOCTYPE svg PUBLIC "-//W3C//DTD SVG 20010904//EN"
 "http://www.w3.org/TR/2001/REC-SVG-20010904/DTD/svg10.dtd">
<svg version="1.0" xmlns="http://www.w3.org/2000/svg"
 width="16.000000pt" height="16.000000pt" viewBox="0 0 16.000000 16.000000"
 preserveAspectRatio="xMidYMid meet">
<metadata>
Created by potrace 1.11, written by Peter Selinger 2001-2013
</metadata>
<g transform="translate(0.000000,16.000000) scale(0.001905,-0.001905)"
fill="#000000" stroke="none">
<path d="M4177 7822 c-6 -17 -37 -72 -47 -82 -5 -5 -26 -41 -57 -100 -10 -19
-20 -37 -23 -40 -3 -3 -10 -14 -16 -25 -6 -11 -64 -112 -129 -225 -65 -113
-125 -218 -134 -235 -9 -16 -18 -32 -21 -35 -3 -3 -11 -16 -18 -29 -24 -41
-148 -259 -183 -318 -11 -18 -29 -50 -40 -70 -12 -21 -30 -51 -40 -68 -25 -42
-102 -177 -112 -195 -4 -8 -21 -37 -37 -65 -17 -27 -36 -61 -43 -75 -6 -14
-14 -27 -17 -30 -3 -3 -48 -79 -99 -170 -52 -91 -100 -172 -107 -180 -7 -8
-14 -19 -15 -25 -1 -5 -7 -19 -14 -30 -7 -11 -109 -186 -226 -390 -117 -203
-244 -424 -282 -490 -102 -175 -177 -305 -202 -350 -77 -138 -120 -211 -125
-215 -4 -3 -13 -20 -21 -37 -8 -18 -17 -33 -21 -33 -5 0 -8 -6 -8 -13 0 -8 -9
-24 -20 -37 -11 -13 -20 -26 -20 -30 0 -4 -23 -47 -51 -96 -29 -49 -63 -109
-77 -134 -13 -25 -30 -52 -37 -60 -6 -8 -24 -40 -40 -70 -15 -30 -30 -57 -34
-60 -3 -3 -15 -24 -26 -47 -11 -24 -23 -43 -27 -43 -5 0 -8 -6 -8 -14 0 -7 -7
-19 -15 -26 -8 -7 -12 -16 -9 -21 3 -5 0 -9 -5 -9 -6 0 -11 -4 -11 -9 0 -4
-29 -59 -65 -120 -36 -62 -65 -116 -65 -121 0 -4 -4 -10 -8 -12 -4 -1 -23 -30
-41 -63 -51 -90 -62 -110 -136 -235 -37 -63 -77 -133 -89 -155 -13 -22 -32
-56 -43 -75 -56 -97 -166 -287 -174 -300 -55 -92 -109 -191 -109 -199 0 -6 -4
-11 -8 -11 -4 0 -21 -26 -37 -57 -16 -32 -34 -65 -41 -73 -6 -8 -23 -35 -36
-60 -14 -25 -34 -61 -45 -80 -11 -19 -62 -107 -113 -195 -51 -88 -103 -179
-116 -202 -13 -23 -53 -92 -89 -153 -36 -61 -65 -115 -65 -121 0 -5 -4 -9 -10
-9 -5 0 -10 -4 -10 -9 0 -6 -52 -99 -115 -207 -63 -109 -115 -200 -115 -204 0
-4 -7 -13 -15 -20 -9 -7 -13 -15 -11 -18 3 -2 -7 -23 -23 -46 -15 -22 -45 -72
-67 -111 -21 -38 -44 -79 -51 -90 -7 -11 -15 -27 -19 -35 -4 -8 -16 -27 -26
-42 -19 -27 -19 -28 -1 -29 46 -3 3783 -4 3783 -1 0 9 -36 80 -52 105 -11 15
-16 27 -12 27 4 0 0 8 -8 18 -9 9 -40 64 -70 122 -31 58 -77 146 -103 195 -26
50 -66 124 -87 165 -22 41 -55 102 -73 135 -18 33 -54 101 -80 150 -45 85 -87
162 -162 300 -18 33 -44 85 -59 115 -15 30 -30 57 -33 60 -3 3 -21 34 -39 70
-45 87 -149 284 -180 340 -74 134 -111 209 -104 213 4 2 450 3 992 2 542 -1
988 0 992 2 4 2 -6 26 -22 54 -17 27 -30 52 -30 54 0 3 -24 49 -54 102 -29 54
-75 139 -101 188 -54 102 -106 200 -167 312 -22 43 -58 110 -80 150 -59 112
-111 210 -158 298 -23 44 -58 109 -77 145 -19 36 -39 71 -45 78 -6 6 -7 12 -2
12 5 0 4 4 -1 8 -6 4 -26 36 -44 72 -19 36 -42 79 -52 97 -13 22 -14 32 -6 35
7 2 548 3 1204 2 l1192 -1 -12 21 c-6 12 -10 24 -9 28 1 3 -5 12 -13 18 -8 7
-15 19 -15 26 0 8 -4 14 -10 14 -5 0 -10 5 -10 11 0 12 -76 145 -98 172 -8 9
-11 17 -6 17 5 0 5 4 -1 8 -12 8 -54 80 -62 105 -3 9 -9 17 -14 17 -5 0 -9 4
-9 9 0 5 -19 42 -43 83 -24 40 -46 80 -50 88 -4 8 -16 29 -27 45 -11 17 -23
37 -27 45 -4 8 -33 59 -65 113 -32 55 -58 103 -58 108 0 5 -4 9 -10 9 -5 0
-10 5 -10 11 0 6 -16 38 -36 70 -19 32 -35 62 -35 66 0 4 -6 15 -13 23 -17 20
-67 109 -64 113 2 1 -3 9 -10 17 -12 13 -175 291 -223 380 -11 19 -25 44 -31
55 -49 79 -81 136 -141 245 -17 30 -33 57 -36 60 -6 5 -37 60 -70 125 -9 16
-19 32 -22 35 -3 3 -23 37 -44 75 -21 39 -53 93 -71 121 -18 29 -31 54 -28 56
2 3 -5 13 -16 23 -11 10 -20 22 -20 27 0 7 -121 222 -190 338 -77 130 -140
242 -140 249 0 5 -4 11 -8 13 -4 2 -37 54 -72 117 -36 63 -75 130 -86 150 -82
139 -124 214 -124 222 0 5 -3 9 -7 9 -5 0 -17 18 -27 41 -23 48 -32 55 -39 31z"/>
<path d="M6941 3037 c-6 -6 -11 -14 -11 -18 0 -3 -42 -78 -93 -165 -51 -88
-107 -184 -123 -214 -16 -30 -32 -57 -35 -60 -3 -3 -19 -30 -36 -60 -46 -83
-201 -353 -213 -370 -6 -8 -16 -27 -23 -42 -6 -16 -15 -28 -19 -28 -4 0 -8 -4
-8 -10 0 -5 -22 -47 -50 -94 -27 -47 -50 -88 -50 -92 0 -4 -6 -15 -14 -23 -7
-9 -25 -36 -38 -61 -14 -25 -39 -69 -57 -98 -17 -29 -31 -57 -31 -62 0 -6 -4
-10 -10 -10 -5 0 -10 -4 -10 -9 0 -4 -23 -48 -52 -97 -28 -49 -61 -107 -73
-129 -13 -22 -55 -96 -96 -165 -40 -69 -80 -138 -88 -155 -9 -16 -19 -31 -23
-33 -5 -2 -8 -7 -8 -12 0 -4 -24 -49 -54 -99 l-53 -92 -92 170 c-50 94 -91
175 -91 181 0 5 -4 10 -10 10 -5 0 -10 6 -10 14 0 7 -11 30 -25 50 -13 20 -23
36 -21 36 3 0 -27 57 -65 127 -38 69 -69 128 -69 131 0 2 -9 17 -21 33 -11 16
-17 29 -14 29 3 0 -3 14 -15 30 -12 17 -18 30 -13 30 4 0 4 4 -2 8 -12 9 -24
29 -84 146 -25 50 -52 97 -59 104 -7 8 -10 18 -7 23 4 5 0 9 -8 9 -7 0 -23
-19 -36 -42 -12 -24 -27 -52 -34 -63 -7 -11 -27 -43 -44 -72 -18 -30 -33 -60
-33 -67 0 -8 -4 -16 -8 -18 -9 -3 -19 -19 -117 -193 -25 -44 -50 -87 -55 -95
-5 -8 -32 -53 -58 -100 -27 -47 -84 -146 -127 -220 -43 -74 -92 -160 -108
-190 -17 -30 -34 -56 -39 -58 -4 -2 -8 -8 -8 -13 0 -4 -22 -46 -50 -93 -28
-47 -50 -89 -50 -95 0 -6 -4 -11 -10 -11 -5 0 -10 -6 -10 -14 0 -8 -6 -16 -12
-19 -7 -2 -9 -8 -5 -13 10 -10 4107 -12 4107 -2 0 4 -20 42 -45 84 -25 41 -45
77 -45 80 0 2 -16 28 -35 58 -19 30 -35 58 -35 61 0 4 -8 19 -19 33 -10 15
-32 52 -49 82 -16 30 -59 106 -96 168 -36 62 -77 132 -90 155 -13 23 -56 98
-96 167 -96 166 -108 187 -138 240 -14 25 -34 59 -44 75 -10 17 -21 37 -25 45
-3 8 -9 17 -12 20 -3 3 -16 23 -28 45 -43 78 -88 158 -98 174 -12 20 -95 162
-124 214 -38 66 -58 101 -90 155 -17 29 -31 57 -31 62 0 6 -4 10 -8 10 -4 0
-13 12 -20 28 -6 15 -20 41 -30 57 -22 35 -53 88 -95 165 -17 30 -37 61 -44
68 -7 7 -13 17 -13 22 0 4 -24 49 -54 98 -40 69 -56 88 -65 79z"/>
</g>
</svg>
